<svg width="233" height="269" viewBox="0 0 233 269" fill="none" xmlns="http://www.w3.org/2000/svg">
<rect width="233" height="269" fill="white"/>
<path d="M31.8059 15C18.0449 15 13 20.0773 13 33.7866V199.401C13 200.969 13.0826 202.409 13.2027 203.743C13.5555 206.751 13.5555 209.683 16.3633 212.961C16.6336 213.351 19.4563 215.42 19.4563 215.42C20.9803 216.163 22.0313 216.71 23.7505 217.408L107.195 252.326C111.496 254.284 113.343 255.109 116.466 254.989H116.504C119.664 255.109 121.511 254.291 125.813 252.326L209.212 217.408C210.976 216.71 211.982 216.155 213.544 215.42C213.544 215.42 216.366 213.268 216.637 212.961C219.452 209.683 219.452 206.751 219.797 203.743C219.917 202.416 220 200.976 220 199.446V33.7941C220 20.0848 214.918 15.0075 201.194 15.0075L31.8059 15ZM165.497 46.086H172.291C183.634 46.086 189.19 51.5983 189.19 63.0877V81.8743H175.429V63.8227C175.429 60.1553 173.747 58.4754 170.181 58.4754H167.839C164.168 58.4754 162.486 60.1553 162.486 63.8227V121.937C162.486 125.605 164.168 127.285 167.839 127.285H170.459C173.972 127.285 175.654 125.605 175.654 121.937V101.156H189.415V122.605C189.415 134.042 183.792 139.674 172.411 139.674H165.497C154.078 139.674 148.478 134.004 148.478 122.605V63.1852C148.478 51.7482 154.071 46.0785 165.497 46.0785V46.086ZM43.4948 46.881H74.6578V59.6529H57.4885V85.6616H74.0347V98.4035H57.4885V126.13H74.8981V138.909H43.4948V46.881ZM81.6922 46.881H103.674C115.047 46.881 120.678 52.5432 120.678 63.9802V88.4365C120.678 99.8734 115.04 105.506 103.674 105.506H95.7384V138.902H81.6922V46.881ZM127.014 46.881H141.008V138.909H127.014V46.881ZM95.6934 59.2554V93.1538H101.482C105.003 93.1538 106.684 91.4438 106.684 87.7615V64.6401C106.684 60.9728 105.003 59.2479 101.482 59.2479L95.6934 59.2554ZM57.0981 160.771H59.1702L59.6431 160.853H60.3939L60.7843 160.973H61.1746L61.5275 161.086L61.9179 161.168L62.2257 161.251L62.9238 161.408L63.3217 161.52L63.592 161.603L63.8998 161.723L64.2902 161.843L64.5604 161.955L64.9583 162.113L65.3112 162.27L65.619 162.458L65.9718 162.615L66.2421 162.803L66.64 163.005L66.9478 163.193L67.2556 163.35L67.5634 163.583L67.8862 163.785L68.1565 164.018L69.0949 164.73L68.8546 165.038L68.5844 165.308L68.3441 165.585L68.0739 165.893L67.8862 166.163L67.646 166.44L67.3757 166.71L67.1355 167.018L66.9478 167.288L66.67 167.61L66.4373 167.88L66.167 168.188L65.9268 168.465L65.7391 168.773L65.4613 169.043L65.2286 169.365L64.9583 169.635L64.7181 169.905L64.4478 169.718L64.14 169.44L63.8172 169.253L63.2392 168.863L62.8863 168.66L62.5635 168.473L62.2106 168.27L61.9404 168.113L61.6326 167.963L61.002 167.723L60.6116 167.655L60.3038 167.573L59.9509 167.49L59.553 167.408L59.1627 167.37H58.7723L58.3143 167.288H57.5636L57.1732 167.325H56.7828L56.3924 167.445L56.0847 167.528L55.7318 167.648L55.379 167.715L55.0561 167.873L54.6658 168.03L54.1252 168.42L53.8024 168.608L53.5322 168.848L53.2619 169.035L52.9841 169.275L52.7964 169.545L52.4736 169.815L52.0832 170.363L51.8955 170.67L51.7379 171.023L51.5502 171.3L51.3475 171.653L51.2274 172.005L51.0772 172.312L50.9571 172.702L50.9196 173.092L50.807 173.452L50.7244 173.842V174.232L50.6869 174.622V175.522L50.7244 175.912V176.22L50.7619 176.61L50.8295 176.962L50.9496 177.27L50.9872 177.667L51.1073 177.975L51.2199 178.245L51.3775 178.635L51.5802 179.025L51.7304 179.302L52.1208 179.925L52.361 180.232L52.5487 180.51L52.8715 180.742L53.0592 181.012L53.3295 181.252L53.9601 181.725L54.2303 181.875L54.5381 182.077L54.8985 182.235L55.2889 182.384L55.5591 182.542L56.3399 182.774L56.6927 182.812L57.0831 182.932L57.4735 182.969H59.1552L59.6281 182.932H59.981L60.3788 182.774L60.7692 182.737L61.1596 182.624L61.4674 182.542L61.8203 182.384L62.1281 182.235L62.4809 182.077L62.7211 181.92L63.0289 181.732V178.252H57.511V172.672H69.9807V185.174L69.7105 185.362L69.4402 185.594L69.1624 185.797L68.8546 186.029L68.5468 186.187L68.2766 186.427L67.646 186.817L67.2556 187.004L66.6325 187.394L66.2346 187.552L65.9268 187.702L65.5739 187.859L64.7932 188.167L64.4854 188.324L63.7722 188.557L63.4193 188.639L63.0665 188.759L62.6761 188.879L62.3683 188.947L61.1972 189.187L60.8368 189.224L60.056 189.307L59.6281 189.344L59.2377 189.374L58.8098 189.412H56.8579L56.4675 189.344H56.0771L55.6868 189.262H55.3339L54.9435 189.142L53.8024 188.909L53.4946 188.789L53.1418 188.752L52.7514 188.594L52.0382 188.362L51.34 188.054L50.9496 187.897L50.6794 187.739L50.289 187.589L50.0112 187.349L49.6208 187.199L49.3881 186.997L49.0803 186.809L48.4497 186.337L48.1419 186.134L47.9016 185.902L47.5938 185.662L47.0833 185.159L46.8131 184.919L46.5803 184.649L46.3026 184.372L46.1149 184.064L45.8747 183.832L45.687 183.509L45.4467 183.202L45.2591 182.932L45.0564 182.624L44.8687 182.264L44.711 181.957L44.5534 181.605L44.4032 181.297L44.0954 180.585L43.9753 180.315L43.8176 179.962L43.7351 179.61L43.6675 179.302L43.5849 178.912L43.4648 178.552L43.3822 178.162L43.3447 177.855L43.2771 177.465L43.1945 176.767L43.112 175.987V173.917L43.1945 173.52V173.13L43.3147 172.74V172.35L43.4273 171.997L43.5474 171.608L43.705 170.91L43.8176 170.52L43.9378 170.168L44.4107 169.11L44.5609 168.803L44.7185 168.45L44.9212 168.09L45.0714 167.783L45.2741 167.513L45.6645 166.883L45.8972 166.575L46.1374 166.305L46.3251 165.998L46.8356 165.488L47.0683 165.21L47.3461 164.94L47.5788 164.67L47.9016 164.43L48.4422 163.958L48.75 163.725L49.0728 163.523L49.3431 163.29L49.6509 163.088L49.9737 162.938L50.3265 162.735L50.7169 162.548L50.9872 162.345L51.3775 162.195L51.7304 162.038L52.0832 161.85L52.406 161.768L52.7964 161.648L53.1042 161.491L53.4571 161.423L53.8099 161.303L54.2003 161.221L54.5231 161.101L54.9135 161.018H55.3039L55.6567 160.906H56.0471L56.4375 160.823H56.7903L57.0981 160.771ZM177.103 160.853H179.175L179.648 160.936H180.391L180.782 161.048H181.21L181.6 161.168L182.298 161.326L182.688 161.408L183.041 161.475L183.439 161.595L183.792 161.715L184.1 161.798L184.453 161.91L184.843 162.03L185.151 162.188L185.541 162.338L185.902 162.495L186.254 162.698L186.525 162.848L186.878 163.05L187.23 163.2L187.553 163.403L187.906 163.635L188.176 163.838L188.807 164.31L189.115 164.498L188.875 164.805L188.687 165.128L188.454 165.398L188.214 165.705L188.026 166.058L187.824 166.38L187.591 166.65L187.351 166.958L187.163 167.28L186.923 167.588L186.735 167.858L186.495 168.165L186.307 168.525L186.067 168.833L185.834 169.103L185.594 169.41L185.406 169.733L185.098 169.493L184.738 169.305L184.468 169.103L184.16 168.915L183.807 168.758L183.484 168.555L183.131 168.405L182.861 168.248L182.471 168.098L182.193 167.94L181.885 167.82L181.187 167.588L180.406 167.348L179.235 167.115L178.845 167.078L178.132 166.995H177.313L176.885 167.078L176.495 167.16L176.142 167.243L175.834 167.393L175.557 167.55L175.249 167.82L175.016 168.173L174.858 168.533V169.463L175.061 169.89L175.211 170.13L175.451 170.363L175.842 170.565L176.15 170.753L176.502 170.91L176.893 171.06L177.403 171.18L177.674 171.3L177.996 171.383L178.387 171.465L178.695 171.578L179.047 171.66L179.475 171.78L179.866 171.9L180.294 172.012L180.722 172.095L181.074 172.215L181.502 172.327L181.893 172.41L182.246 172.492L183.424 172.845L183.732 172.965L184.122 173.085L184.475 173.235L184.866 173.437L185.646 173.745L185.999 173.947L186.63 174.337L187.208 174.765L187.568 174.997L187.839 175.267L188.109 175.59L188.387 175.86L188.574 176.13L188.852 176.52L189.04 176.797L189.197 177.187L189.348 177.42L189.468 177.81L189.588 178.132L189.67 178.485L189.82 179.265L189.858 179.655L189.896 180.007V180.945L189.858 181.372L189.775 182.152L189.693 182.542L189.58 182.894L189.498 183.284L189.378 183.674L189.265 184.027L189.107 184.304L188.95 184.657L188.762 184.964L188.522 185.242L188.131 185.864L187.658 186.412L187.388 186.599L187.08 186.877L186.84 187.109L186.532 187.342L186.224 187.499L185.917 187.739L185.556 187.927L184.858 188.279L184.468 188.437L184.115 188.587L183.725 188.707L183.372 188.827L183.049 188.909L182.268 189.059L181.998 189.142L181.607 189.224H181.217L180.864 189.307H180.474L180.083 189.389H177.298L176.127 189.269L175.737 189.187L175.384 189.149L174.603 188.999L174.175 188.917L173.822 188.834L173.432 188.714L173.034 188.632L172.681 188.519L172.291 188.399L171.9 188.242L171.593 188.129L171.202 188.009L170.812 187.852L170.534 187.702L170.144 187.582L169.836 187.379L169.446 187.229L169.138 187.027L168.86 186.839L168.47 186.637L168.199 186.487L167.892 186.247L167.584 186.059L167.261 185.819L166.991 185.587L166.683 185.347L166.405 185.159L166.097 184.882L166.338 184.574L166.608 184.304L166.84 184.027L167.118 183.719L167.306 183.449L167.546 183.142L167.816 182.864L168.049 182.594L168.327 182.287L168.515 182.01L168.792 181.74L169.025 181.432L169.265 181.155L169.536 180.847L169.723 180.577L170.001 180.3L170.271 179.992L170.542 180.232L170.902 180.465L171.172 180.697L171.563 180.9L171.833 181.102L172.186 181.335L172.509 181.537L172.861 181.687L173.132 181.89L173.484 182.002L173.875 182.16L174.198 182.317L174.551 182.43L174.858 182.587L175.249 182.707L175.602 182.819L175.992 182.939L176.382 182.977L176.743 183.097L177.133 183.134H177.561L177.914 183.247H180.023L180.376 183.179L180.767 183.097L181.037 183.059L181.36 182.939L181.63 182.789L181.983 182.549L182.186 182.28L182.336 181.972L182.456 181.612V180.712L182.298 180.36L182.11 180.052L181.87 179.82L181.517 179.58L181.247 179.467L180.894 179.31L180.504 179.152L180.076 178.965L179.798 178.882L179.49 178.8L179.1 178.68L178.83 178.612L178.439 178.492L178.049 178.455L177.651 178.297L177.261 178.26L176.833 178.147L176.48 178.065L176.09 177.945L175.699 177.862L175.309 177.75L174.956 177.63L174.566 177.547L174.258 177.427L173.545 177.195L173.154 177.037L172.764 176.925L171.983 176.602L171.63 176.415L171.24 176.212L170.97 176.025L170.609 175.822L170.339 175.635L169.986 175.432L169.476 174.922L169.205 174.69L168.732 174.142L168.53 173.872L168.379 173.602L168.139 173.242L168.027 172.972L167.666 172.035L167.599 171.645L167.516 171.293V170.94L167.434 170.55V168.953L167.516 168.173L167.599 167.85L167.666 167.498L167.786 167.19L167.869 166.8L168.027 166.53L168.177 166.133L168.334 165.825L168.485 165.435L168.687 165.165L168.958 164.858L169.16 164.535L169.468 164.265L169.701 163.995L169.941 163.673L170.294 163.403L170.534 163.2L170.842 162.968L171.465 162.578L171.818 162.375L172.531 162.023L172.839 161.91L173.192 161.79L173.582 161.633L173.972 161.52L174.25 161.438L174.603 161.355L174.911 161.273L175.264 161.191L175.654 161.108L176.435 161.041L176.795 161.003L177.103 160.853ZM84.6276 161.123H91.707L92.0298 161.835L92.18 162.143L92.3001 162.533L92.4577 162.885L92.5703 163.193L92.773 163.545L93.0058 164.258L93.2085 164.61L93.5163 165.308L93.5988 165.615L94.222 167.025L94.3421 167.378L94.4997 167.7L94.6874 168.053L94.77 168.405L94.9727 168.795L95.0403 169.148L95.4006 169.845L95.5508 170.123L95.7084 170.513L95.8285 170.903L95.9411 171.173L96.1438 171.563L96.264 171.885L96.4141 172.275L96.5342 172.545L96.6919 172.935L97.0447 173.632L97.1573 173.985L97.2399 174.345L97.3976 174.697L97.5852 175.005L97.7429 175.395L97.9006 175.747L98.0132 176.055L98.336 176.767L98.4486 177.12L98.6062 177.472L98.7264 177.825L98.8765 178.132L99.0792 178.492L99.2294 178.845L99.387 179.152L99.4696 179.542L99.7774 180.24L99.935 180.562L100.048 180.915L100.37 181.612L100.558 182.002L100.641 182.31L100.843 182.707L100.911 182.977L101.069 183.367L101.271 183.757L101.421 184.027L101.542 184.417L101.699 184.739L101.812 185.129L102.015 185.399L102.247 186.179L102.405 186.457L102.555 186.847L102.758 187.154L102.915 187.544L102.983 187.897L103.103 188.204L103.261 188.557L103.448 188.879H95.6333L95.4457 188.557L95.3255 188.204L95.1679 187.852L95.0177 187.462L94.9352 187.154L94.6123 186.457L94.4997 186.134L94.1919 185.437L94.0718 185.129L93.9142 184.739L93.6814 184.027L93.5238 183.719H82.6531L82.503 184.072L82.3829 184.394L82.2252 184.784L82.0751 185.137L81.9925 185.444L81.8348 185.834L81.6847 186.142L81.5646 186.494L81.4069 186.817L81.2568 187.207L81.1367 187.477L80.979 187.867L80.8664 188.257L80.7087 188.534L80.5886 188.924H72.8485L72.9612 188.564L73.284 187.867L73.3966 187.477L73.5167 187.169L73.7194 186.817L73.8695 186.464L74.0272 186.142L74.1098 185.789L74.2599 185.399L74.4626 185.092L74.6128 184.739L74.853 184.027L75.2059 183.329L75.326 182.977L75.4761 182.669L75.5962 182.31L76.0692 181.26L76.2269 180.87L76.3395 180.562L76.4596 180.21L76.6623 179.887L76.8124 179.497L76.9325 179.145L77.0527 178.837L77.2028 178.447L77.4055 178.17L77.5256 177.78L77.6758 177.472L77.7959 177.12L77.9535 176.73L78.1412 176.422L78.2613 176.032L78.4115 175.755L78.5316 175.365L78.6893 174.975L78.8394 174.705L78.9971 174.315L79.1172 173.992L79.2673 173.602L79.3874 173.332L79.5901 172.942L79.7403 172.552L79.8979 172.245L79.9805 171.892L80.1307 171.533L80.3334 171.18L80.4835 170.873L80.5661 170.483L80.7238 170.13L80.8814 169.808L81.1892 169.11L81.3018 168.803L81.6246 168.023L81.7748 167.745L81.9324 167.355L82.0526 167.048L82.1652 166.658L82.3228 166.305L82.5255 165.998L82.6757 165.608L82.7958 165.33L82.9159 164.94L83.066 164.633L83.2687 164.28L83.3889 163.89L83.5015 163.568L83.6591 163.178L83.8093 162.908L84.012 162.518L84.1321 162.128L84.2447 161.858L84.4024 161.468L84.6276 161.123ZM106.609 161.326H114.349L114.589 161.633L114.98 162.263L115.167 162.615L115.37 162.885L115.558 163.238L115.761 163.545L115.948 163.905L116.151 164.213L116.339 164.483L116.541 164.835L116.729 165.158L117.007 165.465L117.119 165.773L117.36 166.125L117.547 166.448L117.788 166.718L117.945 167.07L118.133 167.378L118.373 167.7L118.486 168.008L118.763 168.36L119.342 169.298L119.499 169.605L119.732 169.913L119.935 170.22L120.122 170.58L120.715 171.51L120.903 171.87L121.106 172.177L121.338 171.87L121.496 171.473L121.729 171.203L121.932 170.85L122.119 170.58L122.277 170.19L122.547 169.913L122.75 169.56L122.908 169.29L123.095 168.968L123.335 168.615L123.523 168.345L123.726 167.955L123.914 167.685L124.154 167.325L124.304 167.055L124.507 166.665L124.694 166.433L124.897 166.11L125.13 165.72L125.332 165.45L125.483 165.098L125.723 164.82L125.91 164.43L126.113 164.198L126.346 163.89L126.549 163.5L126.736 163.223L126.939 162.87L127.127 162.6L127.329 162.21L127.562 161.933L127.72 161.58L127.922 161.311H135.783V189.202H128.425V172.792L128.238 173.07L127.997 173.46L127.81 173.692L127.57 174L127.419 174.39L127.179 174.667L126.992 174.937L126.751 175.327L126.361 175.875L126.128 176.182L125.925 176.572L125.693 176.85L125.49 177.12L125.34 177.51L125.1 177.78L124.912 178.057L124.672 178.447L124.484 178.717L124.244 179.025L124.056 179.377L123.898 179.655L123.666 179.962L123.463 180.315L123.23 180.585L122.99 180.907L122.84 181.215L122.637 181.567L122.405 181.845L122.164 182.152L122.014 182.542L121.736 182.774L121.586 183.082L121.346 183.479L121.158 183.749H121.001L120.768 183.397L120.565 183.074L120.378 182.722L120.175 182.452L119.942 182.1L119.739 181.792L119.507 181.47L119.304 181.162L119.116 180.81L118.914 180.54L118.643 180.18L118.486 179.872L118.253 179.52L118.05 179.25L117.863 178.897L117.622 178.575L117.435 178.185L117.194 177.915L117.007 177.562L116.804 177.24L116.616 176.887L116.376 176.617L116.188 176.265L115.948 175.957L115.798 175.635L115.558 175.327L115.37 174.975L115.13 174.705L114.942 174.345L114.702 174.037L114.552 173.685L114.274 173.415L114.124 173.055L113.884 172.747V189.194H106.654V161.573L106.609 161.326ZM141.323 161.326H163.342V167.618H148.635V172.11H161.848V178.05H148.635V182.812H163.53V189.142H141.361V161.565L141.323 161.326ZM88.0659 169.875L87.9458 170.228L87.8332 170.55L87.6756 170.94L87.5179 171.293L87.4053 171.645L87.0825 172.342L86.9323 172.732L86.8122 173.055L86.6921 173.445L86.5419 173.715L86.4218 174.105L86.2642 174.495L86.114 174.772L85.9939 175.162L85.8438 175.47L85.7236 175.86L85.5209 176.212L85.4384 176.52L85.2882 176.91L85.1306 177.27L85.0104 177.577L84.8603 177.967H91.3091L91.159 177.577L91.0388 177.225L90.731 176.512L90.6109 176.16L90.4533 175.852L90.3407 175.462L90.183 175.11L90.0629 174.757L89.9127 174.435L89.7926 174.082L89.635 173.692L89.5224 173.385L89.1995 172.687L89.132 172.327L88.9743 171.975L88.8167 171.585L88.7041 171.315L88.3812 170.535L88.2686 170.183L88.0659 169.875ZM76.5797 222.103H156.766L115.836 235.579L76.5797 222.103Z" fill="black"/>
</svg>
