<svg width="204" height="204" viewBox="0 0 204 204" fill="none" xmlns="http://www.w3.org/2000/svg">
<path d="M204 181.333C204 187.345 201.612 193.11 197.361 197.361C193.11 201.612 187.345 204 181.333 204H22.6667C16.6551 204 10.8897 201.612 6.63891 197.361C2.38809 193.11 0 187.345 0 181.333V22.6667C0 16.6551 2.38809 10.8897 6.63891 6.63891C10.8897 2.38809 16.6551 0 22.6667 0H181.333C187.345 0 193.11 2.38809 197.361 6.63891C201.612 10.8897 204 16.6551 204 22.6667V181.333Z" fill="white"/>
<path d="M70.601 156.655C68.969 156.655 67.4277 156.332 65.943 155.856L65.9147 155.969L45.118 149.951C48.7673 160.593 58.752 168.294 70.618 168.294C85.5837 168.294 97.682 156.19 97.682 141.23C97.682 126.27 85.5837 114.161 70.618 114.161C64.1523 114.161 58.293 116.529 53.6293 120.32L73.6667 126.112C73.831 126.151 73.9783 126.214 74.1427 126.248L74.4203 126.338V126.35C78.0656 127.266 81.2493 129.486 83.3702 132.589C85.4911 135.692 86.4026 139.465 85.9326 143.194C85.4626 146.923 83.6436 150.351 80.8191 152.831C77.9945 155.311 74.3598 156.671 70.601 156.655V156.655Z" fill="#067EB8"/>
<path d="M141.23 103.694C150.002 103.69 158.414 100.203 164.616 93.9995C170.818 87.7962 174.304 79.3843 174.307 70.6123C174.302 61.8413 170.816 53.4308 164.614 47.2288C158.412 41.0268 150.001 37.5405 141.23 37.536C132.459 37.5405 124.049 41.0268 117.847 47.2288C111.645 53.4308 108.158 61.8413 108.154 70.6123C108.157 79.3843 111.643 87.7962 117.845 93.9995C124.047 100.203 132.458 103.69 141.23 103.694V103.694ZM141.213 47.651C144.23 47.6491 147.217 48.2414 150.005 49.394C152.792 50.5467 155.325 52.237 157.46 54.3687C159.594 56.5003 161.287 59.0314 162.443 61.8176C163.599 64.6037 164.195 67.5902 164.197 70.6066C164.199 73.6231 163.607 76.6104 162.454 79.3979C161.302 82.1854 159.611 84.7187 157.48 86.8529C155.348 88.9872 152.817 90.6807 150.031 91.8368C147.245 92.9928 144.258 93.5888 141.242 93.5907C135.15 93.5944 129.306 91.178 124.995 86.873C120.685 82.5679 118.261 76.727 118.258 70.635C118.254 64.543 120.67 58.699 124.975 54.3887C129.28 50.0784 135.121 47.6547 141.213 47.651V47.651Z" fill="#067EB8"/>
<path d="M181.333 0H22.6667C16.6551 0 10.8897 2.38809 6.63891 6.63891C2.38809 10.8897 0 16.6551 0 22.6667V104.805L39.8197 116.325C47.1127 107.315 58.1173 101.445 70.6123 101.445C71.009 101.445 71.3773 101.558 71.7683 101.564L93.7323 71.2187C93.7323 71.0203 93.704 70.8107 93.704 70.6237C93.7018 61.2234 96.4872 52.0335 101.708 44.2164C106.929 36.3992 114.351 30.3059 123.035 26.707C131.719 23.1081 141.275 22.1653 150.495 23.9978C159.715 25.8304 168.185 30.3559 174.833 37.0021C181.48 43.6484 186.008 52.1167 187.843 61.3362C189.677 70.5557 188.737 80.1123 185.14 88.7972C181.543 97.4822 175.452 104.905 167.636 110.128C159.82 115.351 150.631 118.139 141.23 118.139C140.981 118.139 140.737 118.105 140.482 118.099L110.279 140.035C110.29 140.431 110.398 140.828 110.398 141.23C110.399 146.455 109.37 151.629 107.371 156.457C105.372 161.284 102.441 165.67 98.7467 169.365C95.0521 173.059 90.6659 175.99 85.8385 177.989C81.0112 179.988 75.8373 181.017 70.6123 181.016C50.252 181.016 33.6657 165.676 31.3027 145.951L0 136.895V181.333C0 187.345 2.38809 193.11 6.63891 197.361C10.8897 201.612 16.6551 204 22.6667 204H181.333C187.345 204 193.11 201.612 197.361 197.361C201.612 193.11 204 187.345 204 181.333V22.6667C204 16.6551 201.612 10.8897 197.361 6.63891C193.11 2.38809 187.345 0 181.333 0Z" fill="#067EB8"/>
</svg>
