<svg width="498" height="498" viewBox="0 0 498 498" fill="none" xmlns="http://www.w3.org/2000/svg">
<path d="M498 0H0V498H498V0Z" fill="#FF4655"/>
<path d="M348.6 199.698V122.209C348.6 121.014 347.106 120.516 346.309 121.412L261.649 227.188C260.952 227.984 261.55 229.279 262.645 229.279H323.8C325.493 229.279 326.987 228.482 327.983 227.188L347.305 203.084C348.102 202.188 348.6 200.993 348.6 199.698ZM150.595 203.184L214.14 282.665C215.136 283.96 216.73 284.657 218.423 284.657H279.577C280.673 284.657 281.27 283.462 280.573 282.665L151.591 121.512C150.794 120.616 149.3 121.114 149.3 122.309V199.798C149.4 200.993 149.798 202.188 150.595 203.184Z" fill="#111111"/>
<path d="M404.774 331.17H419.017V374.795C419.017 375.392 419.515 375.791 420.013 375.791H428.18C428.778 375.791 429.176 375.293 429.176 374.795V331.17H447.104C447.602 331.17 447.901 330.572 447.602 330.174L441.427 322.505C440.929 321.907 440.132 321.509 439.336 321.509H404.675C404.077 321.509 403.679 322.007 403.679 322.505V330.174C403.778 330.672 404.177 331.17 404.774 331.17ZM60.4572 374.894L102.289 322.505C102.588 322.106 102.289 321.509 101.791 321.509H91.4328C90.636 321.509 89.8392 321.907 89.3412 322.505L59.6604 359.656V322.505C59.6604 321.907 59.1624 321.509 58.6644 321.509H50.4972C49.8996 321.509 49.5012 322.007 49.5012 322.505V374.894C49.5012 375.492 49.9992 375.89 50.4972 375.89H58.4652C59.1624 375.89 59.9592 375.492 60.4572 374.894ZM90.0384 374.894L104.381 356.867L118.823 374.894C119.321 375.492 120.118 375.89 120.914 375.89H128.882C129.48 375.89 129.878 375.392 129.878 374.894V322.505C129.878 321.907 129.38 321.509 128.882 321.509H122.209C120.616 321.509 119.022 322.206 118.026 323.501L76.9908 374.894C76.692 375.293 76.9908 375.89 77.4888 375.89H87.8472C88.7436 375.89 89.4408 375.492 90.0384 374.894ZM119.719 336.648V360.751L110.058 348.7L119.719 336.648ZM353.281 374.894L311.449 322.505C310.951 321.907 310.154 321.509 309.358 321.509H301.39C300.792 321.509 300.394 322.007 300.394 322.505V374.894C300.394 375.492 300.892 375.89 301.39 375.89H309.358C310.154 375.89 310.951 375.492 311.449 374.894L325.891 356.867L340.234 374.894C340.732 375.492 341.528 375.89 342.325 375.89H352.783C353.381 375.89 353.68 375.293 353.281 374.894ZM320.214 348.7L310.553 360.751V336.648L320.214 348.7ZM205.076 320.114C189.34 320.114 176.491 332.863 176.491 348.7C176.491 364.436 189.24 377.285 205.076 377.285C220.813 377.285 233.662 364.536 233.662 348.7C233.662 332.863 220.813 320.114 205.076 320.114ZM205.076 367.524C194.917 367.524 186.75 359.058 186.75 348.7C186.75 338.242 194.917 329.875 205.076 329.875C215.236 329.875 223.403 338.341 223.403 348.7C223.403 359.058 215.236 367.524 205.076 367.524ZM386.448 322.505V359.656L356.767 322.505C356.269 321.907 355.472 321.509 354.676 321.509H346.708C346.11 321.509 345.712 322.007 345.712 322.505V347.704C345.712 348.301 345.911 348.899 346.309 349.397L354.775 360.054C355.174 360.552 355.871 360.253 355.871 359.656V337.744L385.552 374.894C386.05 375.492 386.846 375.89 387.643 375.89H395.611C396.209 375.89 396.607 375.392 396.607 374.894V322.505C396.607 321.907 396.109 321.509 395.611 321.509H387.444C386.946 321.509 386.448 321.907 386.448 322.505ZM286.649 333.859V322.505C286.649 321.907 286.151 321.509 285.653 321.509H243.821C243.223 321.509 242.825 322.007 242.825 322.505V374.894C242.825 375.492 243.323 375.89 243.821 375.89H251.988C252.586 375.89 252.984 375.392 252.984 374.894V331.27H276.39L260.554 351.09C260.255 351.488 260.255 351.986 260.554 352.385L278.581 374.994C279.079 375.592 279.876 375.99 280.673 375.99H291.131C291.629 375.99 291.928 375.392 291.629 374.994L273.203 351.588L286.051 335.453C286.45 335.054 286.649 334.457 286.649 333.859ZM143.225 375.89H167.428C168.224 375.89 169.021 375.492 169.519 374.894L175.595 367.225C175.894 366.827 175.595 366.229 175.097 366.229H152.388V322.604C152.388 322.007 151.89 321.608 151.392 321.608H143.225C142.627 321.608 142.229 322.106 142.229 322.604V374.994C142.229 375.392 142.627 375.89 143.225 375.89Z" fill="#111111"/>
</svg>
